<?xml version="1.0" encoding="utf-8"?>
<svg width="1200" height="550" viewBox="0 0 1200 550" xmlns="http://www.w3.org/2000/svg" xmlns:bx="https://boxy-svg.com"><defs><bx:export><bx:file format="svg"/></bx:export></defs><g class="drawing-elements"><g class="drawing-elements"><g><title>Layer 1</title><path id="svg_3" fill="#1A3852" d="m270.31268,58.43757c22.43113,17.55349 39.52923,40.67773 46.6875,68.5625c0.26112,0.95012 0.52223,1.90024 0.79126,2.87915c2.77562,11.5644 2.63094,23.09116 2.54492,34.93213c-0.02394,3.53904 -0.0205,7.07735 -0.01391,10.61645c-0.00557,2.24936 -0.01267,4.49871 -0.02149,6.74805c0.00091,1.05819 0.00182,2.11637 0.00276,3.20662c-0.00953,0.97249 -0.01906,1.94498 -0.02888,2.94695c-0.00461,0.85632 -0.00922,1.71265 -0.01396,2.59492c-0.2607,2.07573 -0.2607,2.07573 -2.2607,4.07573c-4.40001,0.39948 -8.81458,0.32902 -13.23071,0.31567c-2.19509,-0.00315 -4.38882,0.02029 -6.58374,0.04566c-1.39388,0.00227 -2.78776,0.00297 -4.18164,0.00195c-1.27029,0.00298 -2.54058,0.00596 -3.84937,0.00903c-3.15454,-0.37231 -3.15454,-0.37231 -4.82666,-1.64622c-1.60366,-2.08457 -1.70965,-3.11022 -1.72851,-5.71584c-0.01334,-0.79868 -0.02668,-1.59737 -0.04043,-2.42025c-0.00017,-1.29365 -0.00017,-1.29365 -0.00035,-2.61344c-0.01981,-1.34573 -0.01981,-1.34573 -0.04002,-2.71866c-0.04092,-2.87766 -0.06253,-5.75501 -0.08107,-8.6329c-0.23188,-27.48346 -3.39579,-52.6767 -23.70313,-73.01562c-18.78457,-17.92586 -40.76122,-24.20253 -66.34375,-23.87891c-19.17518,0.57076 -35.89775,9.09909 -50.39062,21.26953c-0.64066,0.52723 -1.28133,1.05445 -1.94141,1.59766c-16.21378,14.70902 -22.99346,36.45033 -24.25186,57.65973c-0.34036,8.47377 -0.41761,16.95063 -0.49423,25.43011c-0.03325,2.56317 -0.06775,5.12632 -0.10352,7.68945c-0.08396,6.20758 -0.15268,12.41517 -0.20898,18.62305c1.04876,-0.00277 2.09753,-0.00553 3.17807,-0.00838c25.5579,-0.0667 51.11579,-0.11594 76.67375,-0.14706c12.35981,-0.01544 24.71956,-0.03649 37.07933,-0.07088c10.77694,-0.02997 21.55384,-0.04927 32.33082,-0.05595c5.70254,-0.0039 11.40495,-0.01301 17.10745,-0.03492c5.37617,-0.02048 10.75217,-0.02662 16.12838,-0.02213c1.96467,-0.00082 3.92935,-0.00672 5.89399,-0.0183c21.77125,-0.12193 39.02926,3.18155 55.67852,18.22871c12.09561,12.61089 14.23794,27.97805 14.20435,44.68799c0.00435,1.44348 0.00954,2.88696 0.01549,4.33043c0.01331,3.89501 0.01397,7.78993 0.01143,11.68496c-0.00107,3.26721 0.00383,6.5344 0.00861,9.8016c0.01107,7.71971 0.01155,15.43937 0.00548,23.15909c-0.00602,7.92408 0.00625,15.84798 0.02757,23.77203c0.01771,6.83607 0.02361,13.67209 0.02037,20.50819c-0.0018,4.06818 0.00068,8.13624 0.01471,12.2044c0.01272,3.8333 0.0105,7.66632 -0.00241,11.49962c-0.00233,1.39298 0.00025,2.78599 0.00862,4.17896c0.15421,27.70566 -9.59978,53.59245 -28.80201,73.70398c-22.89684,23.11585 -50.4233,30.91878 -82.35642,31.11422c-5.14986,0.02031 -10.29939,0.00757 -15.44923,-0.01219c-4.57685,-0.01404 -9.15368,-0.00737 -13.73054,-0.00387c-7.6755,0.00269 -15.35085,-0.01064 -23.02631,-0.03395c-8.83202,-0.02664 -17.66378,-0.02834 -26.49583,-0.01661c-8.55687,0.01083 -17.11366,0.00455 -25.67053,-0.00955c-3.61521,-0.00571 -7.23035,-0.00572 -10.84557,-0.00094c-4.26517,0.00482 -8.53007,-0.00555 -12.79519,-0.02695c-1.55102,-0.0055 -3.10207,-0.00611 -4.65308,-0.00105c-29.11737,0.0829 -54.34409,-10.16366 -75.24732,-30.66145c-20.77644,-21.0306 -29.64209,-47.38974 -29.58716,-76.62134c-0.00436,-1.44056 -0.00955,-2.88111 -0.01549,-4.32167c-0.01326,-3.87184 -0.01398,-7.74358 -0.01143,-11.61544c0.00108,-3.24785 -0.00384,-6.49568 -0.00861,-9.74353c-0.01105,-7.66734 -0.01156,-15.33463 -0.00548,-23.00198c0.00604,-7.87934 -0.0063,-15.75851 -0.02757,-23.63783c-0.01767,-6.797 -0.02361,-13.59396 -0.02037,-20.39099c0.00181,-4.04565 -0.00072,-8.09118 -0.01471,-12.13681c-0.01267,-3.8046 -0.01055,-7.60892 0.00241,-11.41352c0.00235,-1.38661 -0.0003,-2.77324 -0.00862,-4.15982c-0.09464,-17.00236 3.89671,-31.94044 15.91187,-44.45707c10.20353,-9.28472 23.66066,-15.34402 37.47266,-15.25c-0.00666,-0.68222 -0.01332,-1.36443 -0.02019,-2.06732c-0.06089,-6.52769 -0.10617,-13.0553 -0.13525,-19.58322c-0.01545,-3.35364 -0.03801,-6.70686 -0.07088,-10.0604c-0.39232,-41.10968 7.91955,-75.90215 37.22632,-106.28906c41.47054,-40.46031 107.33153,-46.00321 154.3125,-11.5625zm-206.1875,188.3125c-0.53367,0.61359 -1.06734,1.22719 -1.61719,1.85938c-4.90623,7.77879 -4.94384,15.00144 -4.91186,23.97241c-0.00571,1.36274 -0.01268,2.72549 -0.0208,4.08822c-0.01787,3.68451 -0.01677,7.36877 -0.01106,11.05331c0.00311,3.09056 -0.00301,6.18108 -0.00904,9.27164c-0.01403,7.30551 -0.0125,14.6109 -0.00109,21.91642c0.01144,7.49464 -0.00254,14.98893 -0.0294,22.48353c-0.0223,6.46579 -0.02876,12.93147 -0.02292,19.3973c0.00334,3.84751 0.00113,7.6948 -0.01626,11.54228c-0.38362,27.30242 -0.38362,27.30242 8.07712,52.97801c0.33661,0.64969 0.67321,1.29937 1.02002,1.96875c7.96375,14.58767 21.80767,26.22371 37.41748,31.71875c9.83725,2.88255 19.29036,3.43702 29.46021,3.40405c1.6114,0.00572 3.22281,0.01269 4.83421,0.0208c4.33907,0.01781 8.67793,0.01679 13.01703,0.01106c3.64016,-0.00311 7.28029,0.00302 10.92045,0.00904c8.59762,0.014 17.19514,0.01252 25.79276,0.00109c8.82907,-0.01147 17.65783,0.00259 26.48686,0.0294c7.61746,0.02225 15.23482,0.02877 22.85231,0.02292c4.53318,-0.00334 9.06616,-0.00109 13.59931,0.01626c4.26759,0.01562 8.53474,0.01135 12.80231,-0.00731c1.55263,-0.00364 3.1053,-0.0007 4.6579,0.00989c20.22863,0.12722 37.48833,-5.02439 52.40087,-19.30236c14.34655,-14.60412 20.9848,-30.11616 20.82275,-50.62036c0.0068,-1.47366 0.01572,-2.94732 0.02655,-4.42096c0.02253,-3.95235 0.01407,-7.90404 -0.00189,-11.85641c-0.01279,-4.16062 -0.00089,-8.3212 0.00693,-12.48183c0.00905,-6.97734 -0.00279,-13.95441 -0.0267,-20.93172c-0.02726,-8.0443 -0.01835,-16.08797 0.00913,-24.13226c0.02274,-6.93889 0.02586,-13.87758 0.0128,-20.81649c-0.00775,-4.13058 -0.00893,-8.26085 0.00769,-12.3914c0.01452,-3.88034 0.00427,-7.75987 -0.02447,-11.64012c-0.00657,-1.41646 -0.0048,-2.83299 0.00631,-4.24942c0.06087,-8.55691 -0.54198,-15.57025 -5.66332,-22.67387c-7.44237,-7.23618 -15.03912,-8.301 -25.0444,-8.26743c-0.99602,-0.00453 -1.99204,-0.00906 -3.01824,-0.01373c-3.32926,-0.01263 -6.65837,-0.01102 -9.98765,-0.00937c-2.39035,-0.00598 -4.78069,-0.01279 -7.17102,-0.02035c-5.81407,-0.01583 -11.62809,-0.02211 -17.44217,-0.02323c-4.72755,-0.00095 -9.45508,-0.00507 -14.18262,-0.0114c-13.41542,-0.0176 -26.8308,-0.02684 -40.24623,-0.02534c-0.72251,0.00008 -1.44501,0.00016 -2.18941,0.00024c-0.72339,0.00009 -1.44678,0.00017 -2.19209,0.00025c-11.72381,0.00082 -23.44749,-0.01833 -35.17126,-0.04652c-12.0496,-0.02875 -24.09913,-0.04254 -36.14876,-0.04081c-6.7603,0.00066 -13.52046,-0.0048 -20.28073,-0.02636c-6.35794,-0.01937 -12.7156,-0.01952 -19.07355,-0.00497c-2.33122,0.00209 -4.66245,-0.00263 -6.99363,-0.01472c-3.18696,-0.01546 -6.37293,-0.00614 -9.55987,0.00926c-0.9184,-0.01028 -1.8368,-0.02057 -2.78303,-0.03117c-7.74764,0.08252 -15.25748,2.09579 -20.39034,8.27565z" class=""/><path id="svg_4" fill="#1A3852" d="m617.7811,189.13699c12.95312,11.17792 20.8748,24.98123 22.53906,42.17188c0.55203,16.2111 -4.45349,31.77023 -14.90234,44.23828c-12.52682,12.70895 -29.11437,18.26246 -46.66797,18.82812c-16.95869,-0.27547 -32.15375,-6.644 -44.12109,-18.51953c-12.95355,-14.0699 -15.42884,-30.88706 -14.80811,-49.20947c0.95367,-14.0815 8.98369,-27.25328 19.1792,-36.646c23.75282,-18.05215 54.82106,-19.27089 78.78125,-0.86328z"/><path id="svg_5" fill="#1A3852" d="m953.99985,179.00027c14.75719,-0.12375 14.75719,-0.12375 29.8125,-0.25c3.08448,-0.03642 6.16897,-0.07283 9.34692,-0.11035c2.4742,-0.0117 4.9484,-0.02189 7.42261,-0.03028c1.26083,-0.02046 2.52165,-0.04092 3.82068,-0.06201c11.6184,-0.00454 21.60936,2.84882 30.59729,10.45264c9.10584,9.60397 9.80705,19.98616 9.47656,32.61328c-0.58294,9.40033 -4.69832,16.65671 -11.67578,22.98438c-3.65574,2.84687 -7.0237,5.40234 -11.80078,5.40234c2.07006,3.23922 4.14071,6.47807 6.21191,9.71655c0.73171,1.14415 1.46332,2.28835 2.19483,3.43262c3.68538,5.76425 7.37413,11.52599 11.10498,17.26099c0.51071,0.78512 1.02142,1.57024 1.54761,2.37915c0.94476,1.44972 1.89147,2.89817 2.84033,4.34521c3.10034,4.75683 3.10034,4.75683 3.10034,5.86548c-9.20739,1.84187 -19.02648,3.40105 -28,0c-7.38623,-6.88746 -11.41523,-16.5193 -15.44482,-25.62891c-1.33692,-2.89798 -2.76632,-5.50992 -4.49659,-8.18359c-2.05859,-3.1875 -2.05859,-3.1875 -2.05859,-5.1875c-6.6,0 -13.2,0 -20,0c0,12.87 0,25.74 0,39c-7.92,0 -15.84,0 -24,0c0,-37.62 0,-75.24 0,-114z"/><path id="svg_6" fill="#193751" d="m730.08578,322.80886c13.38578,-0.6893 27.07633,4.05244 37.52734,12.23828c8.97795,8.11966 15.7598,19.87648 16.52027,32.09961c0.71211,16.26745 -1.28726,29.09991 -12.57105,41.54102c-0.84562,0.76312 -1.69125,1.52625 -2.5625,2.3125c-0.48855,0.48082 -0.97711,0.96164 -1.48047,1.45703c-9.06229,8.50263 -21.06442,11.94792 -33.26953,11.85547c-1.17961,-0.00846 -1.17961,-0.00846 -2.38305,-0.01709c-13.678,-0.28266 -25.93787,-4.82341 -36.0232,-14.26807c-11.00048,-12.09587 -13.46701,-25.53761 -13.17969,-41.32812c0.60978,-12.54831 6.31255,-23.52807 14.92188,-32.51172c9.06353,-8.21291 20.4726,-12.27527 32.5,-13.37891z"/><path id="svg_7" fill="#1A3750" d="m1085.99985,325.00027c57.31893,0 57.31893,0 73.73828,15.54297c8.85029,9.61456 11.8418,20.40092 11.76172,33.20703c-0.00572,1.05969 -0.01144,2.11938 -0.01733,3.21118c-0.30707,13.4811 -4.73942,23.0393 -14.13501,32.74585c-19.15329,17.80129 -47.48222,12.29297 -71.34766,12.29297c0,-32.01 0,-64.02 0,-97z"/><path id="svg_8" fill="#1C3A53" d="m852.99985,179.00027c26.07,0 52.14,0 79,0c0,6.93 0,13.86 0,21c-18.48,0 -36.96,0 -56,0c0,8.25 0,16.5 0,25c16.5,0 33,0 50,0c0,6.6 0,13.2 0,20c-16.83,0 -33.66,0 -51,0c0,8.91 0,17.82 0,27c19.14,0 38.28,0 58,0c0,6.93 0,13.86 0,21c-26.4,0 -52.8,0 -80,0c0,-37.62 0,-75.24 0,-114z"/><path id="svg_9" fill="#1A3952" d="m510.99985,325.00027c18,0 18,0 22.25,3.22656c1.44482,2.10474 1.44482,2.10474 2.75,4.39844c0.5145,0.7769 1.02899,1.5538 1.55908,2.35425c1.04054,1.5763 2.05699,3.1688 3.04737,4.7771c1.94367,3.12936 4.09898,6.0816 6.26855,9.05615c0.79763,1.12707 1.59448,2.2547 2.39063,3.38281c3.96196,5.55818 8.09393,10.99167 12.20654,16.43872c4.58164,6.07458 9.05049,12.20962 13.52783,18.36597c0.33,-20.46 0.66,-40.92 1,-62c6.6,0 13.2,0 20,0c0,32.01 0,64.02 0,97c-19,0 -19,0 -23.3125,-3.8125c-1.25433,-2.04729 -2.47919,-4.11271 -3.6875,-6.1875c-2.14843,-3.02393 -4.39531,-5.97321 -6.625,-8.9375c-1.21739,-1.65438 -2.43219,-3.31066 -3.64453,-4.96875c-3.67278,-5.01648 -7.35593,-10.02524 -11.04297,-15.03125c-0.5377,-0.73146 -1.0754,-1.46292 -1.62939,-2.21655c-4.64661,-6.31276 -9.35433,-12.57425 -14.05811,-18.84595c-0.33,19.8 -0.66,39.6 -1,60c-6.6,0 -13.2,0 -20,0c0,-32.01 0,-64.02 0,-97z"/><path id="svg_10" fill="#1B3B54" d="m755.99985,179.00027c25.74,0 51.48,0 78,0c0,6.93 0,13.86 0,21c-18.15,0 -36.3,0 -55,0c0,8.91 0,17.82 0,27c15.18,0 30.36,0 46,0c0,6.93 0,13.86 0,21c-15.18,0 -30.36,0 -46,0c0,14.85 0,29.7 0,45c-7.59,0 -15.18,0 -23,0c0,-37.62 0,-75.24 0,-114z" class="" transform="translate(0 0)"/><path id="svg_11" fill="#1B3952" d="m659.99985,179.00027c25.41,0 50.82,0 77,0c0,6.93 0,13.86 0,21c-17.82,0 -35.64,0 -54,0c0,8.91 0,17.82 0,27c15.18,0 30.36,0 46,0c0,6.93 0,13.86 0,21c-15.18,0 -30.36,0 -46,0c0,14.85 0,29.7 0,45c-7.59,0 -15.18,0 -23,0c0,-37.62 0,-75.24 0,-114z"/><path id="svg_12" fill="#1E3B53" d="m903.99985,325.18545c6.93,0 13.86,0 21,0c0.495,20.295 0.495,20.295 1,41c9.6378,-10.43817 9.6378,-10.43817 18.70313,-21.23047c3.45035,-4.16037 7.12796,-8.09372 10.8164,-12.04297c2.54973,-2.58252 2.54973,-2.58252 4.00781,-5.55859c5.60173,-3.21936 9.73291,-2.67893 15.22266,-2.48047c1.7615,0.03384 1.7615,0.03384 3.55859,0.06836c2.89843,0.05891 5.79427,0.14112 8.69141,0.24414c-1.28896,2.81352 -2.66269,4.93257 -4.79297,7.17188c-0.82274,0.87398 -0.82274,0.87398 -1.66211,1.76562c-0.5717,0.59812 -1.1434,1.19625 -1.73242,1.8125c-3.47972,3.67056 -6.92686,7.35124 -10.24219,11.17188c-3.73005,4.29411 -7.60478,8.44145 -11.50781,12.57812c-1.02577,1.09055 -1.02577,1.09055 -2.07227,2.20313c-1.66218,1.76679 -3.3256,3.53239 -4.99023,5.29687c3.05298,5.6357 6.59296,10.69105 10.4375,15.8125c1.25081,1.68039 2.50079,3.36139 3.75,5.04297c0.63293,0.85126 1.26586,1.70253 1.91797,2.57959c3.53486,4.78573 6.99285,9.62683 10.46142,14.46069c3.33143,4.62628 6.74428,9.16195 10.35889,13.573c1.07422,1.53125 1.07422,1.53125 1.07422,3.53125c-20.68775,2.8293 -20.68775,2.8293 -27.25049,-1.47656c-3.95593,-4.06573 -6.60113,-8.95171 -9.27392,-13.91748c-2.51048,-4.43362 -5.57252,-8.45431 -8.60059,-12.54346c-1.51603,-2.11823 -3.032,-4.23651 -4.54736,-6.35522c-1.33236,-1.71335 -2.76094,-3.20803 -4.32764,-4.70728c-4.43071,3.62771 -7.57143,6.9257 -8.75391,12.64893c-0.34886,4.13659 -0.30574,8.26632 -0.24609,12.41357c-0.00811,1.4525 -0.0198,2.90498 -0.03516,4.35742c-0.03624,3.52969 0.00101,7.0476 0.03516,10.58008c-6.93,0 -13.86,0 -21,0c0,-32.34 0,-64.68 0,-98z"/><path id="svg_13" fill="#F9F9FA" d="m594.53891,200.55105c10.03488,5.90943 14.95989,13.42246 18.77344,24.13672c2.36554,11.34543 1.36289,22.65588 -4.70313,32.58984c-5.53609,7.82338 -12.62245,12.95248 -21.9375,15.3125c-9.42239,1.44642 -19.38525,1.58068 -27.67187,-3.58984c-8.83861,-6.76045 -15.07008,-13.84783 -17,-25c-1.28593,-12.56845 -0.24727,-24.53865 7.6875,-34.9375c11.33829,-11.80827 29.89645,-15.06896 44.85156,-8.51172z"/><path id="svg_14" fill="#1A3851" d="m406.99985,325.00027c6.6,0 13.2,0 20,0c0.01458,1.92715 0.02917,3.8543 0.04419,5.83984c0.05179,6.39033 0.11711,12.78041 0.19152,19.17051c0.0446,3.87169 0.08388,7.74328 0.11073,11.61514c0.02614,3.74143 0.06662,7.48247 0.11675,11.22366c0.01659,1.42238 0.02815,2.84482 0.03442,4.26727c-0.14597,12.26422 -0.14597,12.26422 5.22114,22.94217c0.58781,0.45504 1.17563,0.91008 1.78125,1.37891c0.58781,0.47309 1.17563,0.94617 1.78125,1.43359c5.379,3.53303 12.57916,2.61845 18.71875,2.12891c5.35163,-1.50336 9.09765,-4.19997 12,-9c1.55141,-4.66315 2.26058,-8.76528 2.31885,-13.66968c0.01987,-1.2808 0.03974,-2.5616 0.06021,-3.88121c0.01187,-1.37756 0.02353,-2.75513 0.035,-4.1327c0.01874,-1.42491 0.03831,-2.8498 0.05869,-4.27468c0.0511,-3.73005 0.09084,-7.46014 0.12814,-11.19035c0.04018,-3.81448 0.09121,-7.62882 0.1413,-11.44318c0.0965,-7.4693 0.17998,-14.93867 0.25781,-22.4082c6.6,0 13.2,0 20,0c0.09075,8.93687 0.16397,17.87343 0.20725,26.81067c0.02078,4.15093 0.04892,8.30153 0.09451,12.45227c0.04379,4.01359 0.06745,8.02686 0.07775,12.04067c0.00733,1.52327 0.02164,3.04652 0.04341,4.56964c0.1548,11.29271 -0.51549,21.90417 -8.67292,30.50175c-8.97137,9.21976 -18.26015,12.61065 -31.05273,13.02954c-13.92323,0.17417 -24.36237,-2.46328 -34.59961,-12.21704c-9.20725,-9.65495 -9.66594,-20.03405 -9.48829,-32.69531c0.00748,-1.57754 0.01317,-3.15509 0.01716,-4.73264c0.01515,-4.11997 0.05434,-8.23936 0.09881,-12.3591c0.04117,-4.21674 0.05924,-8.43357 0.07935,-12.65045c0.04269,-8.25029 0.11296,-16.50001 0.19531,-24.75z"/><path id="svg_15" fill="#1D3D56" d="m1000.99985,325.00027c21.78,0 43.56,0 66,0c0,5.94 0,11.88 0,18c-15.18,0 -30.36,0 -46,0c0,7.26 0,14.52 0,22c13.53,0 27.06,0 41,0c0,5.61 0,11.22 0,17c-13.53,0 -27.06,0 -41,0c0,7.59 0,15.18 0,23c15.18,0 30.36,0 46,0c0,5.61 0,11.22 0,17c-21.78,0 -43.56,0 -66,0c0,-32.01 0,-64.02 0,-97z"/><path id="svg_16" fill="#193750" d="m870.76547,329.57839c7.99955,5.31706 13.63315,11.05601 18.23438,19.42188c-2.60061,1.3407 -5.20505,2.67273 -7.8125,4c-0.73799,0.38156 -1.47598,0.76312 -2.23633,1.15625c-0.71221,0.36093 -1.42442,0.72187 -2.15821,1.09375c-0.6546,0.33515 -1.3092,0.67031 -1.98364,1.01562c-1.80932,0.73438 -1.80932,0.73438 -4.80933,0.73438c-1.344,-1.99285 -2.67541,-3.9942 -4,-6c-6.01023,-5.87364 -11.56594,-8.11793 -19.875,-8.4375c-7.79795,0.236 -14.1888,2.31965 -20,7.625c-7.11095,7.78179 -8.50405,16.96609 -8.39843,27.13671c0.61876,8.31793 3.5871,14.99111 9.34375,21.01954c6.02052,5.16741 12.82781,7.02618 20.6914,6.86328c8.65576,-0.80062 14.22384,-4.10066 20.23828,-10.20703c1.32001,-1.32 2.64001,-2.64001 4.00001,-4c5.28,2.64 10.56,5.28 16,8c-4.39907,10.99766 -13.36344,17.63473 -23.9961,22.32031c-11.7021,4.17828 -25.47029,4.63974 -37.00391,-0.32031c-1.25876,-0.52788 -1.25876,-0.52788 -2.54296,-1.06641c-10.80709,-4.95393 -18.94638,-12.91228 -23.7461,-23.87891c-4.79331,-12.93161 -6.87199,-29.84564 -0.96875,-42.74609c0.62262,-1.14276 0.62262,-1.14276 1.25781,-2.30859c0.65356,-1.28198 0.65356,-1.28198 1.32032,-2.58985c6.71549,-12.20164 17.28054,-20.01303 30.63598,-23.99316c12.38765,-2.52755 26.85208,-1.09131 37.80933,5.16113z"/><path id="svg_17" fill="#1A3851" d="m225.00018,275.00007c2.9375,1.9375 2.9375,1.9375 5,5c1.1934,7.61935 -1.02666,14.38041 -3.55078,21.48047c-0.36973,1.07825 -0.73945,2.1565 -1.12038,3.26742c-1.19917,3.48512 -2.4199,6.96224 -3.64134,10.43961c-0.83541,2.4142 -1.66955,4.82883 -2.50244,7.2439c-4.69493,13.58073 -9.4687,27.13481 -14.32715,40.65796c-4.1311,11.53859 -7.98347,23.16758 -11.80078,34.81323c-7.65468,23.28473 -7.65468,23.28473 -12.05713,26.09741c-4.45833,1.44465 -7.13843,1.43079 -11.375,-0.6875c-3.90744,-3.44227 -3.90744,-3.44227 -4.625,-6.3125c0.48041,-6.23716 2.01297,-11.66481 4.07031,-17.55078c0.3128,-0.91464 0.6256,-1.82928 0.94788,-2.77164c1.02802,-2.99936 2.06723,-5.99471 3.10681,-8.99008c0.72632,-2.11056 1.45206,-4.22132 2.17725,-6.33228c2.22107,-6.45574 4.45802,-12.90592 6.69775,-19.35522c0.6667,-1.92219 1.33337,-3.84439 2,-5.7666c2.48005,-7.14632 4.96292,-14.29158 7.4707,-21.42822c0.61399,-1.74754 1.22792,-3.4951 1.8418,-5.24268c0.302,-0.85973 0.60401,-1.71947 0.91516,-2.60526c1.92603,-5.49824 3.81423,-11.00821 5.67825,-16.52778c1.26175,-3.73278 2.53519,-7.46152 3.80961,-11.18999c0.60026,-1.76681 1.19483,-3.53557 1.78332,-5.30633c0.81138,-2.43996 1.6423,-4.87243 2.47772,-7.30423c0.23276,-0.71765 0.46552,-1.43529 0.70532,-2.17469c2.89782,-8.28358 7.89457,-11.45303 16.31812,-9.45422z"/><path id="svg_18" fill="#F8F9F9" d="m748.82016,344.61355c8.16372,5.19377 12.47235,11.9842 14.92969,21.19922c0.90208,11.5015 0.57696,21.38605 -7.125,30.625c-5.49502,5.72935 -11.18557,9.14249 -19.17578,9.89844c-11.18378,0.11613 -18.37274,-1.62694 -26.65625,-9.26563c-7.62885,-8.80891 -8.56828,-18.917 -7.79297,-30.07031c1.78081,-8.65734 6.00884,-15.32086 13.125,-20.56641c9.36917,-6.04518 22.52589,-6.69958 32.69531,-1.82031z"/><path id="svg_19" fill="#183650" d="m254.00018,295.00007c1.83571,1.24939 1.83571,1.24939 3.66626,2.94336c0.69465,0.63833 1.38931,1.27665 2.10501,1.93433c0.73548,0.70036 1.47096,1.40072 2.22873,2.12231c0.75329,0.71519 1.50657,1.43038 2.28268,2.16724c5.31648,5.10749 10.54781,10.30282 15.78299,15.4934c1.91913,1.9012 3.84644,3.79349 5.78125,5.67872c2.80625,2.73449 5.58777,5.49336 8.36792,8.25439c0.86657,0.83874 1.73314,1.67747 2.62597,2.54163c3.35869,3.37042 5.81304,6.02917 7.64576,10.45251c-0.75052,5.26309 -3.77962,7.78639 -7.48657,11.41211c-0.71111,0.73483 -1.42222,1.46965 -2.15488,2.22675c-2.35725,2.43421 -4.74367,4.83654 -7.13809,7.23419c-0.86845,0.87178 -1.7369,1.74356 -2.63167,2.64175c-1.82321,1.82824 -3.64775,3.65516 -5.47355,5.48081c-2.79659,2.79878 -5.58506,5.60549 -8.37329,8.41259c-1.77751,1.78044 -3.55549,3.56041 -5.33399,5.33985c-0.83235,0.83953 -1.66469,1.67906 -2.52226,2.54403c-0.77794,0.77486 -1.55587,1.54972 -2.35738,2.34806c-0.6806,0.68202 -1.3612,1.36405 -2.06242,2.06674c-2.84569,2.48535 -5.09677,3.57502 -8.82747,4.14273c-4.39324,-0.61505 -5.97066,-2.35652 -9.125,-5.4375c-1.63024,-3.26048 -1.46735,-5.37801 -1,-9c1.32533,-1.87024 1.32533,-1.87024 3.07837,-3.7832c0.95606,-1.04741 0.95606,-1.04741 1.93143,-2.11597c3.03044,-3.19889 6.10753,-6.34186 9.23629,-9.44458c0.65598,-0.65456 1.31196,-1.30912 1.98781,-1.98352c2.0655,-2.05997 4.13448,-4.1164 6.2036,-6.17273c1.41364,-1.40862 2.82706,-2.81747 4.24023,-4.22656c3.4381,-3.42716 6.87932,-6.85116 10.32227,-10.27344c-4.16213,-4.97014 -8.50031,-9.62434 -13.11328,-14.17578c-0.65502,-0.65123 -1.31004,-1.30247 -1.98491,-1.97344c-2.069,-2.05689 -4.14124,-4.11048 -6.21431,-6.16328c-2.74895,-2.72241 -5.4946,-5.44807 -8.23828,-8.17578c-0.63223,-0.62393 -1.26446,-1.24786 -1.91585,-1.8907c-5.41439,-5.38362 -5.41439,-5.38362 -5.84587,-9.87102c0.36536,-4.38437 1.57277,-6.36562 4.3125,-9.75c3.30607,-1.65304 6.45264,-1.75352 10,-1z"/><path id="svg_20" fill="#183750" d="m153.00018,295.00007c3.37022,2.09702 5.8913,4.11953 7,8c0.08432,5.1034 -1.03721,7.44532 -4.51001,11.19116c-1.54515,1.54421 -3.1067,3.07212 -4.6814,4.58618c-0.81983,0.81135 -1.63967,1.6227 -2.48436,2.45864c-2.61514,2.58162 -5.25038,5.14157 -7.88673,7.70152c-1.77936,1.74926 -3.55737,3.4999 -5.33398,5.25195c-4.35231,4.28625 -8.7213,8.5549 -13.10352,12.81055c4.16213,4.97014 8.50031,9.62434 13.11328,14.17578c0.65502,0.65123 1.31004,1.30247 1.98491,1.97344c2.069,2.05689 4.14124,4.11048 6.21431,6.16328c2.74895,2.72241 5.4946,5.44807 8.23828,8.17578c0.63223,0.62393 1.26446,1.24786 1.91585,1.8907c5.4335,5.40262 5.4335,5.40262 5.84587,10.43352c-0.03018,3.31977 -0.3064,4.17795 -2.1875,7.125c-2.82027,2.73732 -3.77224,3.01384 -7.75,3.5625c-3.70844,-0.05879 -5.34884,-0.94829 -8.05493,-3.44604c-0.69457,-0.6382 -1.38915,-1.2764 -2.10477,-1.93393c-3.95143,-3.78149 -7.84871,-7.61121 -11.71139,-11.48331c-0.87415,-0.8732 -1.7483,-1.74639 -2.64894,-2.64604c-1.83236,-1.83169 -3.66348,-3.66462 -5.4934,-5.49874c-1.8768,-1.8804 -3.75488,-3.7594 -5.63574,-5.63574c-2.72248,-2.71633 -5.44151,-5.43607 -8.15942,-8.15698c-1.26704,-1.26401 -1.26704,-1.26401 -2.55968,-2.55354c-0.77493,-0.77809 -1.54987,-1.55617 -2.34828,-2.35784c-1.02637,-1.02756 -1.02637,-1.02756 -2.07347,-2.07588c-2.14651,-2.31848 -2.56839,-3.62162 -3.14748,-6.77446c1.03324,-7.23267 6.90397,-11.52774 12.23877,-16.10986c4.19052,-3.65838 8.12751,-7.51922 12.03467,-11.47608c1.04131,-1.04699 1.04131,-1.04699 2.10367,-2.11514c2.18927,-2.20137 4.37523,-4.40598 6.56039,-6.61142c2.90079,-2.92733 5.80485,-5.85137 8.71094,-8.77344c0.66454,-0.67284 1.32908,-1.34568 2.01376,-2.03891c0.61469,-0.61799 1.22938,-1.23599 1.8627,-1.87271c0.53991,-0.54514 1.07981,-1.09028 1.63608,-1.65195c3.19866,-2.93956 6.20907,-2.64328 10.40152,-2.28799z"/><path id="svg_21" fill="#1C3951" d="m617.99985,325.00027c6.6,0 13.2,0 20,0c0,26.4 0,52.8 0,80c13.86,0 27.72,0 42,0c0,5.61 0,11.22 0,17c-20.46,0 -40.92,0 -62,0c0,-32.01 0,-64.02 0,-97z"/><path id="svg_22" fill="#F6F7F7" d="m1104.99985,343.00027c28.65,0 28.65,0 37.80469,8.71875c6.46124,6.75615 8.30934,12.89691 8.63281,22.15625c-0.223,8.98802 -2.42373,17.07189 -8.74609,23.69531c-10.60645,8.96526 -24.61012,7.42969 -37.69141,7.42969c0,-20.46 0,-40.92 0,-62z"/><path id="svg_23" fill="#FAFAFA" d="m974.99985,199.00027c4.26938,-0.04125 8.53875,-0.0825 12.9375,-0.125c1.32765,-0.01821 2.65531,-0.03642 4.02319,-0.05518c15.34037,-0.07135 15.34037,-0.07135 21.91431,3.93018c3.6506,3.86535 5.29031,7.32796 5.5,12.625c-0.22783,5.87407 -1.53859,10.68657 -5.625,15c-5.36229,3.16863 -10.62889,3.87497 -16.77734,3.82031c-1.16008,-0.00499 -2.32016,-0.00999 -3.51538,-0.01513c-1.45028,-0.01821 -2.90056,-0.03642 -4.39478,-0.05518c-4.64062,-0.04125 -9.28125,-0.0825 -14.0625,-0.125c0,-11.55 0,-23.1 0,-35z"/></g></g></g></svg>